<mxfile host="app.diagrams.net" agent="Mozilla/5.0 (Windows NT 10.0; Win64; x64) AppleWebKit/537.36 (KHTML, like Gecko) Chrome/134.0.0.0 Safari/537.36" version="26.1.3">
  <diagram id="1jTV7QtE0jiicnQG9--T" name="Page-1">
    <mxGraphModel dx="1434" dy="746" grid="1" gridSize="10" guides="1" tooltips="1" connect="1" arrows="1" fold="1" page="1" pageScale="1" pageWidth="850" pageHeight="1100" math="0" shadow="0">
      <root>
        <mxCell id="0" />
        <mxCell id="1" parent="0" />
        <mxCell id="gYAbXkRyvqcz9teV-y6C-19" value="" style="whiteSpace=wrap;html=1;strokeColor=#6c8ebf;fillColor=#dae8fc;" vertex="1" parent="1">
          <mxGeometry x="600" y="260" width="210" height="140" as="geometry" />
        </mxCell>
        <mxCell id="gYAbXkRyvqcz9teV-y6C-5" value="" style="whiteSpace=wrap;html=1;strokeColor=#82b366;fillColor=#d5e8d4;" vertex="1" parent="1">
          <mxGeometry x="600" y="127.5" width="210" height="132.5" as="geometry" />
        </mxCell>
        <mxCell id="rkZVqQ5Pmx0ySL5raMBL-15" value="" style="whiteSpace=wrap;html=1;strokeColor=#6c8ebf;fillColor=#dae8fc;" parent="1" vertex="1">
          <mxGeometry x="240" y="127.5" width="360" height="272.5" as="geometry" />
        </mxCell>
        <mxCell id="rkZVqQ5Pmx0ySL5raMBL-13" value="" style="whiteSpace=wrap;html=1;strokeColor=#d6b656;fillColor=#fff2cc;" parent="1" vertex="1">
          <mxGeometry x="240" y="32.5" width="360" height="95" as="geometry" />
        </mxCell>
        <mxCell id="rkZVqQ5Pmx0ySL5raMBL-5" style="edgeStyle=orthogonalEdgeStyle;rounded=0;orthogonalLoop=1;jettySize=auto;html=1;exitX=0.5;exitY=1;exitDx=0;exitDy=0;entryX=0.5;entryY=0;entryDx=0;entryDy=0;startArrow=classic;startFill=1;" parent="1" source="rkZVqQ5Pmx0ySL5raMBL-1" target="rkZVqQ5Pmx0ySL5raMBL-2" edge="1">
          <mxGeometry relative="1" as="geometry" />
        </mxCell>
        <mxCell id="rkZVqQ5Pmx0ySL5raMBL-1" value="&lt;b&gt;Web - React&lt;/b&gt;" style="rounded=1;whiteSpace=wrap;html=1;" parent="1" vertex="1">
          <mxGeometry x="325" y="50" width="190" height="60" as="geometry" />
        </mxCell>
        <mxCell id="rkZVqQ5Pmx0ySL5raMBL-6" style="edgeStyle=orthogonalEdgeStyle;rounded=0;orthogonalLoop=1;jettySize=auto;html=1;exitX=0.25;exitY=1;exitDx=0;exitDy=0;entryX=0.5;entryY=0;entryDx=0;entryDy=0;startArrow=classic;startFill=1;" parent="1" source="rkZVqQ5Pmx0ySL5raMBL-2" target="rkZVqQ5Pmx0ySL5raMBL-3" edge="1">
          <mxGeometry relative="1" as="geometry" />
        </mxCell>
        <mxCell id="rkZVqQ5Pmx0ySL5raMBL-7" style="edgeStyle=orthogonalEdgeStyle;rounded=0;orthogonalLoop=1;jettySize=auto;html=1;exitX=0.75;exitY=1;exitDx=0;exitDy=0;startArrow=classic;startFill=1;" parent="1" source="rkZVqQ5Pmx0ySL5raMBL-2" edge="1">
          <mxGeometry relative="1" as="geometry">
            <mxPoint x="483" y="252" as="targetPoint" />
          </mxGeometry>
        </mxCell>
        <mxCell id="rkZVqQ5Pmx0ySL5raMBL-2" value="&lt;b&gt;Nginx&lt;/b&gt;" style="rounded=1;whiteSpace=wrap;html=1;" parent="1" vertex="1">
          <mxGeometry x="375" y="148" width="90" height="62" as="geometry" />
        </mxCell>
        <mxCell id="rkZVqQ5Pmx0ySL5raMBL-3" value="&lt;b&gt;Gunicorn&lt;/b&gt;" style="rounded=1;whiteSpace=wrap;html=1;" parent="1" vertex="1">
          <mxGeometry x="312.5" y="252" width="90" height="30" as="geometry" />
        </mxCell>
        <mxCell id="rkZVqQ5Pmx0ySL5raMBL-4" value="&lt;b&gt;Daphne&lt;/b&gt;" style="rounded=1;whiteSpace=wrap;html=1;" parent="1" vertex="1">
          <mxGeometry x="437.5" y="252" width="90" height="30" as="geometry" />
        </mxCell>
        <mxCell id="rkZVqQ5Pmx0ySL5raMBL-11" value="HTTP" style="text;html=1;align=center;verticalAlign=middle;resizable=0;points=[];autosize=1;strokeColor=none;fillColor=none;" parent="1" vertex="1">
          <mxGeometry x="342.5" y="210" width="50" height="30" as="geometry" />
        </mxCell>
        <mxCell id="rkZVqQ5Pmx0ySL5raMBL-12" value="WebSocket" style="text;html=1;align=center;verticalAlign=middle;resizable=0;points=[];autosize=1;strokeColor=none;fillColor=none;" parent="1" vertex="1">
          <mxGeometry x="437.5" y="210" width="80" height="30" as="geometry" />
        </mxCell>
        <mxCell id="rkZVqQ5Pmx0ySL5raMBL-14" value="Klient" style="text;html=1;align=center;verticalAlign=middle;resizable=0;points=[];autosize=1;strokeColor=none;fillColor=none;" parent="1" vertex="1">
          <mxGeometry x="240" y="32.5" width="50" height="30" as="geometry" />
        </mxCell>
        <mxCell id="rkZVqQ5Pmx0ySL5raMBL-16" value="Server" style="text;html=1;align=center;verticalAlign=middle;resizable=0;points=[];autosize=1;strokeColor=none;fillColor=none;" parent="1" vertex="1">
          <mxGeometry x="235" y="127.5" width="60" height="30" as="geometry" />
        </mxCell>
        <mxCell id="gYAbXkRyvqcz9teV-y6C-25" style="edgeStyle=orthogonalEdgeStyle;rounded=0;orthogonalLoop=1;jettySize=auto;html=1;exitX=1;exitY=0.25;exitDx=0;exitDy=0;entryX=0;entryY=0.5;entryDx=0;entryDy=0;startArrow=classic;startFill=1;" edge="1" parent="1" source="gYAbXkRyvqcz9teV-y6C-1" target="gYAbXkRyvqcz9teV-y6C-21">
          <mxGeometry relative="1" as="geometry" />
        </mxCell>
        <mxCell id="gYAbXkRyvqcz9teV-y6C-27" style="edgeStyle=orthogonalEdgeStyle;rounded=0;orthogonalLoop=1;jettySize=auto;html=1;exitX=1;exitY=0.75;exitDx=0;exitDy=0;startArrow=classic;startFill=1;" edge="1" parent="1" source="gYAbXkRyvqcz9teV-y6C-1" target="gYAbXkRyvqcz9teV-y6C-22">
          <mxGeometry relative="1" as="geometry" />
        </mxCell>
        <mxCell id="gYAbXkRyvqcz9teV-y6C-1" value="&lt;b&gt;Django - Python&lt;/b&gt;" style="rounded=1;whiteSpace=wrap;html=1;" vertex="1" parent="1">
          <mxGeometry x="330" y="322" width="190" height="58" as="geometry" />
        </mxCell>
        <mxCell id="gYAbXkRyvqcz9teV-y6C-2" style="edgeStyle=orthogonalEdgeStyle;rounded=0;orthogonalLoop=1;jettySize=auto;html=1;exitX=0.5;exitY=1;exitDx=0;exitDy=0;entryX=0.353;entryY=0.017;entryDx=0;entryDy=0;startArrow=classic;startFill=1;entryPerimeter=0;" edge="1" parent="1" source="rkZVqQ5Pmx0ySL5raMBL-3" target="gYAbXkRyvqcz9teV-y6C-1">
          <mxGeometry relative="1" as="geometry" />
        </mxCell>
        <mxCell id="gYAbXkRyvqcz9teV-y6C-4" value="&lt;b&gt;Brána&lt;/b&gt;" style="rounded=1;whiteSpace=wrap;html=1;" vertex="1" parent="1">
          <mxGeometry x="660" y="148" width="90" height="30" as="geometry" />
        </mxCell>
        <mxCell id="gYAbXkRyvqcz9teV-y6C-6" value="Hardvér" style="text;html=1;align=center;verticalAlign=middle;resizable=0;points=[];autosize=1;strokeColor=none;fillColor=none;" vertex="1" parent="1">
          <mxGeometry x="595" y="127.5" width="70" height="30" as="geometry" />
        </mxCell>
        <mxCell id="gYAbXkRyvqcz9teV-y6C-10" style="edgeStyle=orthogonalEdgeStyle;rounded=0;orthogonalLoop=1;jettySize=auto;html=1;exitX=0;exitY=0.5;exitDx=0;exitDy=0;entryX=1;entryY=0.75;entryDx=0;entryDy=0;startArrow=classic;startFill=1;" edge="1" parent="1" source="gYAbXkRyvqcz9teV-y6C-8" target="rkZVqQ5Pmx0ySL5raMBL-2">
          <mxGeometry relative="1" as="geometry" />
        </mxCell>
        <mxCell id="gYAbXkRyvqcz9teV-y6C-8" value="&lt;b&gt;EČV Detekcia&lt;/b&gt;" style="rounded=1;whiteSpace=wrap;html=1;" vertex="1" parent="1">
          <mxGeometry x="660" y="210" width="90" height="30" as="geometry" />
        </mxCell>
        <mxCell id="gYAbXkRyvqcz9teV-y6C-13" value="" style="endArrow=classic;startArrow=classic;html=1;rounded=0;entryX=0;entryY=0.5;entryDx=0;entryDy=0;exitX=1;exitY=0.25;exitDx=0;exitDy=0;" edge="1" parent="1" source="rkZVqQ5Pmx0ySL5raMBL-2" target="gYAbXkRyvqcz9teV-y6C-4">
          <mxGeometry width="50" height="50" relative="1" as="geometry">
            <mxPoint x="400" y="410" as="sourcePoint" />
            <mxPoint x="450" y="360" as="targetPoint" />
          </mxGeometry>
        </mxCell>
        <mxCell id="gYAbXkRyvqcz9teV-y6C-17" value="WebSocket" style="text;html=1;align=center;verticalAlign=middle;resizable=0;points=[];autosize=1;strokeColor=none;fillColor=none;" vertex="1" parent="1">
          <mxGeometry x="480" y="140" width="80" height="30" as="geometry" />
        </mxCell>
        <mxCell id="gYAbXkRyvqcz9teV-y6C-18" value="WebSocket" style="text;html=1;align=center;verticalAlign=middle;resizable=0;points=[];autosize=1;strokeColor=none;fillColor=none;" vertex="1" parent="1">
          <mxGeometry x="480" y="170" width="80" height="30" as="geometry" />
        </mxCell>
        <mxCell id="gYAbXkRyvqcz9teV-y6C-20" value="Databáza" style="text;html=1;align=center;verticalAlign=middle;resizable=0;points=[];autosize=1;strokeColor=none;fillColor=none;" vertex="1" parent="1">
          <mxGeometry x="600" y="260" width="70" height="30" as="geometry" />
        </mxCell>
        <mxCell id="gYAbXkRyvqcz9teV-y6C-21" value="&lt;b&gt;PostgreSQL&lt;/b&gt;" style="rounded=1;whiteSpace=wrap;html=1;" vertex="1" parent="1">
          <mxGeometry x="660" y="300" width="90" height="30" as="geometry" />
        </mxCell>
        <mxCell id="gYAbXkRyvqcz9teV-y6C-22" value="&lt;b&gt;Redis&lt;/b&gt;" style="rounded=1;whiteSpace=wrap;html=1;" vertex="1" parent="1">
          <mxGeometry x="660" y="350" width="90" height="30" as="geometry" />
        </mxCell>
        <mxCell id="gYAbXkRyvqcz9teV-y6C-29" style="edgeStyle=orthogonalEdgeStyle;rounded=0;orthogonalLoop=1;jettySize=auto;html=1;exitX=0.5;exitY=1;exitDx=0;exitDy=0;entryX=0.6;entryY=0.034;entryDx=0;entryDy=0;entryPerimeter=0;startArrow=classic;startFill=1;" edge="1" parent="1" source="rkZVqQ5Pmx0ySL5raMBL-4" target="gYAbXkRyvqcz9teV-y6C-1">
          <mxGeometry relative="1" as="geometry" />
        </mxCell>
      </root>
    </mxGraphModel>
  </diagram>
</mxfile>
